<svg id="Layer_1" data-name="Layer 1" xmlns="http://www.w3.org/2000/svg" viewBox="0 0 19 39.81"><defs><style>.cls-1{fill:#fff;}</style></defs><title>phone</title><path class="cls-1" d="M28.14,3.5A2.36,2.36,0,0,1,30.5,5.86V40a2.36,2.36,0,0,1-2.36,2.36H14.86A2.36,2.36,0,0,1,12.5,40V5.86A2.36,2.36,0,0,1,14.86,3.5H28.14m0-.5H14.86A2.86,2.86,0,0,0,12,5.86V40a2.86,2.86,0,0,0,2.86,2.86H28.14A2.86,2.86,0,0,0,31,40V5.86A2.86,2.86,0,0,0,28.14,3Z" transform="translate(-12 -3)"/><rect class="cls-1" x="6.25" y="0.25" width="7.5" height="1.97" rx="0.63"/><path class="cls-1" d="M25.12,3.5a.38.38,0,0,1,.38.38V4.6a.38.38,0,0,1-.38.37H18.88a.38.38,0,0,1-.38-.37V3.88a.38.38,0,0,1,.38-.38h6.24m0-.5H18.88a.87.87,0,0,0-.88.88V4.6a.87.87,0,0,0,.88.87h6.24A.87.87,0,0,0,26,4.6V3.88A.87.87,0,0,0,25.12,3Z" transform="translate(-12 -3)"/><circle class="cls-1" cx="5.13" cy="27.13" r="0.88"/><path class="cls-1" d="M17.12,29.5a.63.63,0,1,1-.62.62.63.63,0,0,1,.62-.62m0-.5a1.13,1.13,0,1,0,1.13,1.12A1.12,1.12,0,0,0,17.12,29Z" transform="translate(-12 -3)"/><circle class="cls-1" cx="10.09" cy="27.16" r="0.84"/><path class="cls-1" d="M22.09,29.57a.58.58,0,0,1,.59.59.59.59,0,0,1-.59.59.6.6,0,0,1-.59-.59.59.59,0,0,1,.59-.59m0-.5a1.09,1.09,0,1,0,1.09,1.09,1.09,1.09,0,0,0-1.09-1.09Z" transform="translate(-12 -3)"/><circle class="cls-1" cx="15.13" cy="27.13" r="0.88"/><path class="cls-1" d="M27.12,29.5a.63.63,0,1,1-.62.62.63.63,0,0,1,.62-.62m0-.5a1.13,1.13,0,1,0,1.13,1.12A1.12,1.12,0,0,0,27.12,29Z" transform="translate(-12 -3)"/><circle class="cls-1" cx="5.13" cy="30.5" r="0.88"/><path class="cls-1" d="M17.12,32.88a.62.62,0,1,1-.62.62.63.63,0,0,1,.62-.62m0-.5a1.12,1.12,0,1,0,1.13,1.12,1.12,1.12,0,0,0-1.13-1.12Z" transform="translate(-12 -3)"/><circle class="cls-1" cx="10.09" cy="30.53" r="0.84"/><path class="cls-1" d="M22.09,32.94a.59.59,0,0,1,.59.59.58.58,0,0,1-.59.59.59.59,0,0,1-.59-.59.6.6,0,0,1,.59-.59m0-.5a1.09,1.09,0,1,0,1.09,1.09,1.09,1.09,0,0,0-1.09-1.09Z" transform="translate(-12 -3)"/><circle class="cls-1" cx="15.13" cy="30.5" r="0.88"/><path class="cls-1" d="M27.12,32.88a.62.62,0,1,1-.62.62.63.63,0,0,1,.62-.62m0-.5a1.12,1.12,0,1,0,1.13,1.12,1.12,1.12,0,0,0-1.13-1.12Z" transform="translate(-12 -3)"/><circle class="cls-1" cx="5.13" cy="33.88" r="0.88"/><path class="cls-1" d="M17.12,36.25a.63.63,0,1,1-.62.63.63.63,0,0,1,.62-.63m0-.5a1.13,1.13,0,1,0,1.13,1.13,1.12,1.12,0,0,0-1.13-1.13Z" transform="translate(-12 -3)"/><circle class="cls-1" cx="10.09" cy="33.91" r="0.84"/><path class="cls-1" d="M22.09,36.32a.58.58,0,0,1,.59.59.59.59,0,0,1-.59.59.6.6,0,0,1-.59-.59.59.59,0,0,1,.59-.59m0-.5a1.09,1.09,0,1,0,1.09,1.09,1.09,1.09,0,0,0-1.09-1.09Z" transform="translate(-12 -3)"/><circle class="cls-1" cx="10.09" cy="36.91" r="0.84"/><path class="cls-1" d="M22.09,39.32a.58.58,0,0,1,.59.59.59.59,0,0,1-.59.59.6.6,0,0,1-.59-.59.59.59,0,0,1,.59-.59m0-.5a1.09,1.09,0,1,0,1.09,1.09,1.09,1.09,0,0,0-1.09-1.09Z" transform="translate(-12 -3)"/><circle class="cls-1" cx="15.13" cy="33.88" r="0.88"/><path class="cls-1" d="M27.12,36.25a.63.63,0,1,1-.62.63.63.63,0,0,1,.62-.63m0-.5a1.13,1.13,0,1,0,1.13,1.13,1.12,1.12,0,0,0-1.13-1.13Z" transform="translate(-12 -3)"/></svg>